<?xml version="1.0" encoding="UTF-8" standalone="no"?>
<svg width="856px" height="198px" viewBox="0 0 856 198" version="1.1" xmlns="http://www.w3.org/2000/svg" xmlns:xlink="http://www.w3.org/1999/xlink" xmlns:sketch="http://www.bohemiancoding.com/sketch/ns">
    <!-- Generator: Sketch 3.2.2 (9983) - http://www.bohemiancoding.com/sketch -->
    <title>Logo</title>
    <desc>Created with Sketch.</desc>
    <defs></defs>
    <g id="Logo" stroke="none" stroke-width="1" fill="none" fill-rule="evenodd" sketch:type="MSPage">
        <g id="Logo-Only" sketch:type="MSArtboardGroup" transform="translate(-15.000000, -6.000000)" fill="#FFFFFF">
            <g id="Logo" sketch:type="MSLayerGroup" transform="translate(15.000000, 7.000000)">
                <path d="M98.918,72.97 C103.556,60.151 108.738,56.877 115.557,56.877 C124.011,56.877 130.012,63.424 129.466,64.788 L81.735,182.616 C79.281,188.616 73.826,191.071 65.097,191.071 C55.824,191.071 51.187,189.162 48.732,183.161 L0.456,64.788 C-0.09,63.151 5.911,56.877 14.639,56.877 C22.275,56.877 27.185,60.151 31.822,72.97 L64.824,165.433 L98.918,72.97" id="v" sketch:type="MSShapeGroup"></path>
                <path d="M138.471,155.068 C138.471,124.792 167.383,111.701 226.57,110.609 L230.115,110.609 L230.115,107.882 C230.115,87.971 218.661,77.061 197.658,77.061 C177.747,77.061 166.019,87.426 160.018,99.427 C160.018,99.7 143.381,99.427 143.381,86.335 C143.381,73.788 162.473,54.968 199.567,54.968 C236.661,54.968 256.845,74.061 256.845,107.336 L256.845,187.798 C256.845,189.162 251.936,190.798 247.025,190.798 C237.481,190.798 230.662,185.616 230.389,169.796 C220.296,183.98 203.113,192.435 183.202,192.435 C155.109,192.435 138.471,177.434 138.471,155.068 L138.471,155.068 Z M230.115,137.612 L230.115,127.52 L222.752,127.793 C184.566,129.157 164.929,136.248 164.929,153.977 C164.929,165.705 174.202,173.069 189.748,173.069 C213.206,173.069 230.115,158.341 230.115,137.612 L230.115,137.612 Z" id="a" sketch:type="MSShapeGroup"></path>
                <path d="M289.851,177.706 L289.851,5.055 C289.851,4.237 294.487,2.055 299.669,2.055 C308.124,2.055 316.854,6.419 316.854,25.239 L316.854,177.706 C316.854,187.525 311.942,190.525 304.852,190.525 L302.125,190.525 C295.033,190.525 289.851,187.525 289.851,177.706" id="l" sketch:type="MSShapeGroup"></path>
                <path d="M343.581,124.52 C343.581,84.698 371.947,54.968 410.68,54.968 C448.591,54.968 473.685,81.698 473.685,120.974 L473.685,123.156 C473.685,128.884 471.775,131.066 465.502,131.066 L368.676,131.066 C370.584,155.341 388.586,171.706 413.405,171.706 C436.316,171.706 447.773,161.614 454.592,149.886 C455.137,149.34 468.774,151.795 468.774,163.251 C468.774,174.706 448.591,192.98 412.861,192.98 C371.402,192.98 343.581,165.433 343.581,124.52 L343.581,124.52 Z M368.948,112.792 L447.5,112.792 C446.137,90.153 432.226,75.425 410.406,75.425 C388.859,75.425 372.221,90.972 368.948,112.792 L368.948,112.792 Z" id="e" sketch:type="MSShapeGroup"></path>
                <path d="M487.051,70.243 L487.051,68.333 C487.051,61.787 490.324,58.241 498.779,58.241 L508.325,58.241 L508.325,38.058 C508.325,28.784 512.963,25.239 520.326,25.239 L523.054,25.239 C530.146,25.239 534.783,27.966 534.783,38.058 L534.783,58.241 L564.512,58.241 C572.968,58.241 575.968,61.515 575.968,68.061 L575.968,69.97 C575.968,76.789 572.694,80.334 564.24,80.334 L534.51,80.334 L534.51,146.613 C534.51,162.977 539.146,170.888 551.966,170.888 C560.422,170.888 566.422,167.069 570.513,161.614 C571.331,160.796 578.149,164.614 578.149,173.069 C578.149,183.161 566.968,192.98 547.602,192.98 C520.599,192.98 508.325,177.979 508.325,149.613 L508.325,80.334 L498.779,80.334 C490.324,80.334 487.051,76.789 487.051,70.243" id="t" sketch:type="MSShapeGroup"></path>
                <path d="M599.421,176.615 L599.421,173.342 C599.421,163.796 604.33,158.341 614.149,158.341 L617.695,158.341 C627.788,158.341 632.696,163.796 632.696,173.342 L632.696,176.615 C632.696,186.162 627.515,191.344 617.695,191.344 L614.149,191.344 C604.604,191.344 599.421,186.162 599.421,176.615" id="." sketch:type="MSShapeGroup"></path>
                <path d="M661.606,15.147 C661.606,5.328 667.606,-0.127 677.971,-0.127 C688.063,-0.127 693.791,5.328 693.791,15.147 C693.791,24.966 688.063,30.148 677.698,30.148 C667.606,30.148 661.606,24.693 661.606,15.147 L661.606,15.147 Z M664.06,177.706 L664.06,69.97 C664.06,60.151 669.243,56.877 676.335,56.877 L679.063,56.877 C686.153,56.877 691.063,59.878 691.063,69.97 L691.063,177.706 C691.063,187.525 686.153,190.525 679.063,190.525 L676.335,190.525 C669.243,190.525 664.06,187.525 664.06,177.706 L664.06,177.706 Z" id="i" sketch:type="MSShapeGroup"></path>
                <path d="M796.728,120.486 L831.415,98.806 L831.415,159.086 L796.728,137.405 C794.74,140.577 791.213,142.687 787.193,142.687 C783.174,142.687 779.647,140.577 777.66,137.404 L742.973,159.086 L742.973,98.806 L777.66,120.486 C779.647,117.314 783.173,115.204 787.193,115.204 C791.214,115.204 794.741,117.314 796.728,120.486 M786.799,59.968 L786.799,59.968 C746.999,59.968 718.971,87.431 717.828,126.224 C718.967,165.522 746.733,192.981 786.525,192.981 C826.052,192.981 854.073,165.524 855.222,126.739 C854.073,87.686 826.058,59.968 786.799,59.968" id="o-bowtie" sketch:type="MSShapeGroup"></path>
            </g>
        </g>
    </g>
</svg>